<?xml version="1.0" encoding="UTF-8" standalone="no"?>
<!-- Created with Inkscape (http://www.inkscape.org/) -->

<svg
   xmlns:dc="http://purl.org/dc/elements/1.1/"
   xmlns:cc="http://creativecommons.org/ns#"
   xmlns:rdf="http://www.w3.org/1999/02/22-rdf-syntax-ns#"
   xmlns:svg="http://www.w3.org/2000/svg"
   xmlns="http://www.w3.org/2000/svg"
   xmlns:xlink="http://www.w3.org/1999/xlink"
   xmlns:sodipodi="http://sodipodi.sourceforge.net/DTD/sodipodi-0.dtd"
   xmlns:inkscape="http://www.inkscape.org/namespaces/inkscape"
   width="1080"
   height="400"
   id="svg2"
   version="1.1"
   inkscape:version="0.91 r13725"
   sodipodi:docname="groonga-family-glue.svg">
  <defs
     id="defs4">
    <marker
       inkscape:isstock="true"
       style="overflow:visible"
       id="marker11506"
       refX="0"
       refY="0"
       orient="auto"
       inkscape:stockid="Arrow1Send">
      <path
         inkscape:connector-curvature="0"
         transform="matrix(-0.2,0,0,-0.2,-1.2,0)"
         style="fill:#4e9a06;fill-opacity:1;fill-rule:evenodd;stroke:#4e9a06;stroke-width:1pt;stroke-opacity:1"
         d="M 0,0 5,-5 -12.5,0 5,5 0,0 Z"
         id="path11508" />
    </marker>
    <marker
       inkscape:isstock="true"
       style="overflow:visible"
       id="marker10860"
       refX="0"
       refY="0"
       orient="auto"
       inkscape:stockid="Arrow1Send">
      <path
         inkscape:connector-curvature="0"
         transform="matrix(-0.2,0,0,-0.2,-1.2,0)"
         style="fill:#4e9a06;fill-opacity:1;fill-rule:evenodd;stroke:#4e9a06;stroke-width:1pt;stroke-opacity:1"
         d="M 0,0 5,-5 -12.5,0 5,5 0,0 Z"
         id="path10862" />
    </marker>
    <marker
       inkscape:isstock="true"
       style="overflow:visible"
       id="marker10534"
       refX="0"
       refY="0"
       orient="auto"
       inkscape:stockid="Arrow1Send">
      <path
         inkscape:connector-curvature="0"
         transform="matrix(-0.2,0,0,-0.2,-1.2,0)"
         style="fill:#4e9a06;fill-opacity:1;fill-rule:evenodd;stroke:#4e9a06;stroke-width:1pt;stroke-opacity:1"
         d="M 0,0 5,-5 -12.5,0 5,5 0,0 Z"
         id="path10536" />
    </marker>
    <marker
       inkscape:stockid="Arrow1Send"
       orient="auto"
       refY="0"
       refX="0"
       id="marker9874"
       style="overflow:visible"
       inkscape:isstock="true"
       inkscape:collect="always">
      <path
         id="path9876"
         d="M 0,0 5,-5 -12.5,0 5,5 0,0 Z"
         style="fill:#4e9a06;fill-opacity:1;fill-rule:evenodd;stroke:#4e9a06;stroke-width:1pt;stroke-opacity:1"
         transform="matrix(-0.2,0,0,-0.2,-1.2,0)"
         inkscape:connector-curvature="0" />
    </marker>
    <marker
       inkscape:stockid="Arrow1Send"
       orient="auto"
       refY="0"
       refX="0"
       id="marker9780"
       style="overflow:visible"
       inkscape:isstock="true"
       inkscape:collect="always">
      <path
         id="path9782"
         d="M 0,0 5,-5 -12.5,0 5,5 0,0 Z"
         style="fill:#4e9a06;fill-opacity:1;fill-rule:evenodd;stroke:#4e9a06;stroke-width:1pt;stroke-opacity:1"
         transform="matrix(-0.2,0,0,-0.2,-1.2,0)"
         inkscape:connector-curvature="0" />
    </marker>
    <marker
       inkscape:stockid="Arrow1Send"
       orient="auto"
       refY="0"
       refX="0"
       id="marker9634"
       style="overflow:visible"
       inkscape:isstock="true">
      <path
         id="path9636"
         d="M 0,0 5,-5 -12.5,0 5,5 0,0 Z"
         style="fill:#4e9a06;fill-opacity:1;fill-rule:evenodd;stroke:#4e9a06;stroke-width:1pt;stroke-opacity:1"
         transform="matrix(-0.2,0,0,-0.2,-1.2,0)"
         inkscape:connector-curvature="0" />
    </marker>
    <marker
       inkscape:stockid="Arrow1Send"
       orient="auto"
       refY="0"
       refX="0"
       id="marker9571"
       style="overflow:visible"
       inkscape:isstock="true">
      <path
         id="path9330"
         d="M 0,0 5,-5 -12.5,0 5,5 0,0 Z"
         style="fill:#4e9a06;fill-opacity:1;fill-rule:evenodd;stroke:#4e9a06;stroke-width:1pt;stroke-opacity:1"
         transform="matrix(-0.2,0,0,-0.2,-1.2,0)"
         inkscape:connector-curvature="0" />
    </marker>
    <marker
       inkscape:stockid="Arrow1Send"
       orient="auto"
       refY="0"
       refX="0"
       id="Arrow1Send"
       style="overflow:visible">
      <path
         id="path4041"
         d="M 0,0 5,-5 -12.5,0 5,5 0,0 Z"
         style="fill-rule:evenodd;stroke:#000000;stroke-width:1pt;marker-start:none"
         transform="matrix(-0.2,0,0,-0.2,-1.2,0)"
         inkscape:connector-curvature="0" />
    </marker>
    <marker
       style="overflow:visible"
       id="Arrow1SendHTTP"
       refX="0"
       refY="0"
       orient="auto"
       inkscape:stockid="Arrow1SendHTTP">
      <path
         transform="matrix(-0.2,0,0,-0.2,-1.2,0)"
         style="fill:#4e9a06;fill-rule:evenodd;stroke:#4e9a06;stroke-width:1pt;marker-start:none"
         d="M 0,0 5,-5 -12.5,0 5,5 0,0 Z"
         id="path6054"
         inkscape:connector-curvature="0" />
    </marker>
    <marker
       inkscape:stockid="Arrow1SendCLI"
       orient="auto"
       refY="0"
       refX="0"
       id="Arrow1SendCLI"
       style="overflow:visible">
      <path
         inkscape:connector-curvature="0"
         id="path6066"
         d="M 0,0 5,-5 -12.5,0 5,5 0,0 Z"
         style="fill:#8f5902;fill-rule:evenodd;stroke:#8f5902;stroke-width:1pt;marker-start:none"
         transform="matrix(-0.2,0,0,-0.2,-1.2,0)" />
    </marker>
    <marker
       style="overflow:visible"
       id="Arrow1Sendgqtp"
       refX="0"
       refY="0"
       orient="auto"
       inkscape:stockid="Arrow1Sendgqtp">
      <path
         transform="matrix(-0.2,0,0,-0.2,-1.2,0)"
         style="fill:#0071bc;fill-rule:evenodd;stroke:#0071bc;stroke-width:1pt;marker-start:none"
         d="M 0,0 5,-5 -12.5,0 5,5 0,0 Z"
         id="path6070"
         inkscape:connector-curvature="0" />
    </marker>
    <marker
       inkscape:stockid="Arrow1SendAPI"
       orient="auto"
       refY="0"
       refX="0"
       id="Arrow1SendAPI"
       style="overflow:visible">
      <path
         inkscape:connector-curvature="0"
         id="path6062"
         d="M 0,0 5,-5 -12.5,0 5,5 0,0 Z"
         style="fill:#a40000;fill-rule:evenodd;stroke:#a40000;stroke-width:1pt;marker-start:none"
         transform="matrix(-0.2,0,0,-0.2,-1.2,0)" />
    </marker>
    <marker
       inkscape:stockid="Arrow1SendSQL"
       orient="auto"
       refY="0"
       refX="0"
       id="Arrow1SendSQL"
       style="overflow:visible">
      <path
         inkscape:connector-curvature="0"
         id="path6058"
         d="M 0,0 5,-5 -12.5,0 5,5 0,0 Z"
         style="fill:#ff931e;fill-rule:evenodd;stroke:#ff931e;stroke-width:1pt;marker-start:none"
         transform="matrix(-0.2,0,0,-0.2,-1.2,0)" />
    </marker>
    <marker
       inkscape:stockid="Arrow1Lend"
       orient="auto"
       refY="0"
       refX="0"
       id="Arrow1Lend"
       style="overflow:visible">
      <path
         id="path3840"
         d="M 0,0 5,-5 -12.5,0 5,5 0,0 Z"
         style="fill-rule:evenodd;stroke:#000000;stroke-width:1pt;marker-start:none"
         transform="matrix(-0.8,0,0,-0.8,-10,0)"
         inkscape:connector-curvature="0" />
    </marker>
    <filter
       id="filter3755"
       inkscape:label="Drop shadow"
       width="1.5"
       height="1.5"
       x="-0.25"
       y="-0.25"
       style="color-interpolation-filters:sRGB">
      <feGaussianBlur
         id="feGaussianBlur3757"
         in="SourceAlpha"
         stdDeviation="2"
         result="blur" />
      <feColorMatrix
         id="feColorMatrix3759"
         result="bluralpha"
         type="matrix"
         values="1 0 0 0 0 0 1 0 0 0 0 0 1 0 0 0 0 0 0.5 0 " />
      <feOffset
         id="feOffset3761"
         in="bluralpha"
         dx="4"
         dy="4"
         result="offsetBlur" />
      <feMerge
         id="feMerge3763">
        <feMergeNode
           id="feMergeNode3765"
           in="offsetBlur" />
        <feMergeNode
           id="feMergeNode3767"
           in="SourceGraphic" />
      </feMerge>
    </filter>
    <filter
       id="filter5131"
       inkscape:label="Drop shadow"
       width="1.5"
       height="1.5"
       x="-0.25"
       y="-0.25"
       style="color-interpolation-filters:sRGB">
      <feGaussianBlur
         id="feGaussianBlur5133"
         in="SourceAlpha"
         stdDeviation="2"
         result="blur" />
      <feColorMatrix
         id="feColorMatrix5135"
         result="bluralpha"
         type="matrix"
         values="1 0 0 0 0 0 1 0 0 0 0 0 1 0 0 0 0 0 0.5 0 " />
      <feOffset
         id="feOffset5137"
         in="bluralpha"
         dx="4"
         dy="4"
         result="offsetBlur" />
      <feMerge
         id="feMerge5139">
        <feMergeNode
           id="feMergeNode5141"
           in="offsetBlur" />
        <feMergeNode
           id="feMergeNode5143"
           in="SourceGraphic" />
      </feMerge>
    </filter>
    <filter
       id="filter5180"
       inkscape:label="Drop shadow"
       width="1.5"
       height="1.5"
       x="-0.25"
       y="-0.25"
       style="color-interpolation-filters:sRGB">
      <feGaussianBlur
         id="feGaussianBlur5182"
         in="SourceAlpha"
         stdDeviation="2"
         result="blur" />
      <feColorMatrix
         id="feColorMatrix5184"
         result="bluralpha"
         type="matrix"
         values="1 0 0 0 0 0 1 0 0 0 0 0 1 0 0 0 0 0 0.5 0 " />
      <feOffset
         id="feOffset5186"
         in="bluralpha"
         dx="4"
         dy="4"
         result="offsetBlur" />
      <feMerge
         id="feMerge5188">
        <feMergeNode
           id="feMergeNode5190"
           in="offsetBlur" />
        <feMergeNode
           id="feMergeNode5192"
           in="SourceGraphic" />
      </feMerge>
    </filter>
    <filter
       id="filter5194"
       inkscape:label="Drop shadow"
       width="1.5"
       height="1.5"
       x="-0.25"
       y="-0.25"
       style="color-interpolation-filters:sRGB">
      <feGaussianBlur
         id="feGaussianBlur5196"
         in="SourceAlpha"
         stdDeviation="2"
         result="blur" />
      <feColorMatrix
         id="feColorMatrix5198"
         result="bluralpha"
         type="matrix"
         values="1 0 0 0 0 0 1 0 0 0 0 0 1 0 0 0 0 0 0.5 0 " />
      <feOffset
         id="feOffset5200"
         in="bluralpha"
         dx="4"
         dy="4"
         result="offsetBlur" />
      <feMerge
         id="feMerge5202">
        <feMergeNode
           id="feMergeNode5204"
           in="offsetBlur" />
        <feMergeNode
           id="feMergeNode5206"
           in="SourceGraphic" />
      </feMerge>
    </filter>
    <filter
       id="filter5222"
       inkscape:label="Drop shadow"
       width="1.5"
       height="1.5"
       x="-0.25"
       y="-0.25"
       style="color-interpolation-filters:sRGB">
      <feGaussianBlur
         id="feGaussianBlur5224"
         in="SourceAlpha"
         stdDeviation="2"
         result="blur" />
      <feColorMatrix
         id="feColorMatrix5226"
         result="bluralpha"
         type="matrix"
         values="1 0 0 0 0 0 1 0 0 0 0 0 1 0 0 0 0 0 0.5 0 " />
      <feOffset
         id="feOffset5228"
         in="bluralpha"
         dx="4"
         dy="4"
         result="offsetBlur" />
      <feMerge
         id="feMerge5230">
        <feMergeNode
           id="feMergeNode5232"
           in="offsetBlur" />
        <feMergeNode
           id="feMergeNode5234"
           in="SourceGraphic" />
      </feMerge>
    </filter>
    <filter
       id="filter5236"
       inkscape:label="Drop shadow"
       width="1.5"
       height="1.5"
       x="-0.25"
       y="-0.25"
       style="color-interpolation-filters:sRGB">
      <feGaussianBlur
         id="feGaussianBlur5238"
         in="SourceAlpha"
         stdDeviation="2"
         result="blur" />
      <feColorMatrix
         id="feColorMatrix5240"
         result="bluralpha"
         type="matrix"
         values="1 0 0 0 0 0 1 0 0 0 0 0 1 0 0 0 0 0 0.5 0 " />
      <feOffset
         id="feOffset5242"
         in="bluralpha"
         dx="4"
         dy="4"
         result="offsetBlur" />
      <feMerge
         id="feMerge5244">
        <feMergeNode
           id="feMergeNode5246"
           in="offsetBlur" />
        <feMergeNode
           id="feMergeNode5248"
           in="SourceGraphic" />
      </feMerge>
    </filter>
    <filter
       id="filter5250"
       inkscape:label="Drop shadow"
       width="1.5"
       height="1.5"
       x="-0.25"
       y="-0.25"
       style="color-interpolation-filters:sRGB">
      <feGaussianBlur
         id="feGaussianBlur5252"
         in="SourceAlpha"
         stdDeviation="2"
         result="blur" />
      <feColorMatrix
         id="feColorMatrix5254"
         result="bluralpha"
         type="matrix"
         values="1 0 0 0 0 0 1 0 0 0 0 0 1 0 0 0 0 0 0.5 0 " />
      <feOffset
         id="feOffset5256"
         in="bluralpha"
         dx="4"
         dy="4"
         result="offsetBlur" />
      <feMerge
         id="feMerge5258">
        <feMergeNode
           id="feMergeNode5260"
           in="offsetBlur" />
        <feMergeNode
           id="feMergeNode5262"
           in="SourceGraphic" />
      </feMerge>
    </filter>
    <filter
       id="filter5268"
       inkscape:label="Drop shadow"
       width="1.5"
       height="1.5"
       x="-0.25"
       y="-0.25"
       style="color-interpolation-filters:sRGB">
      <feGaussianBlur
         id="feGaussianBlur5270"
         in="SourceAlpha"
         stdDeviation="2"
         result="blur" />
      <feColorMatrix
         id="feColorMatrix5272"
         result="bluralpha"
         type="matrix"
         values="1 0 0 0 0 0 1 0 0 0 0 0 1 0 0 0 0 0 0.5 0 " />
      <feOffset
         id="feOffset5274"
         in="bluralpha"
         dx="4"
         dy="4"
         result="offsetBlur" />
      <feMerge
         id="feMerge5276">
        <feMergeNode
           id="feMergeNode5278"
           in="offsetBlur" />
        <feMergeNode
           id="feMergeNode5280"
           in="SourceGraphic" />
      </feMerge>
    </filter>
    <clipPath
       id="clipPath3179"
       clipPathUnits="userSpaceOnUse">
      <path
         id="path3181"
         d="m 0,0 2352.62,0 0,1744 L 0,1744 0,0 Z"
         inkscape:connector-curvature="0" />
    </clipPath>
    <filter
       id="filter3347"
       inkscape:label="Drop shadow"
       width="1.5"
       height="1.5"
       x="-0.25"
       y="-0.25"
       style="color-interpolation-filters:sRGB">
      <feGaussianBlur
         id="feGaussianBlur3349"
         in="SourceAlpha"
         stdDeviation="2"
         result="blur" />
      <feColorMatrix
         id="feColorMatrix3351"
         result="bluralpha"
         type="matrix"
         values="1 0 0 0 0 0 1 0 0 0 0 0 1 0 0 0 0 0 0.5 0 " />
      <feOffset
         id="feOffset3353"
         in="bluralpha"
         dx="4"
         dy="4"
         result="offsetBlur" />
      <feMerge
         id="feMerge3355">
        <feMergeNode
           id="feMergeNode3357"
           in="offsetBlur" />
        <feMergeNode
           id="feMergeNode3359"
           in="SourceGraphic" />
      </feMerge>
    </filter>
    <filter
       id="filter4173"
       inkscape:label="Drop shadow"
       width="1.5"
       height="1.5"
       x="-0.25"
       y="-0.25"
       style="color-interpolation-filters:sRGB">
      <feGaussianBlur
         id="feGaussianBlur4175"
         in="SourceAlpha"
         stdDeviation="2"
         result="blur" />
      <feColorMatrix
         id="feColorMatrix4177"
         result="bluralpha"
         type="matrix"
         values="1 0 0 0 0 0 1 0 0 0 0 0 1 0 0 0 0 0 0.5 0 " />
      <feOffset
         id="feOffset4179"
         in="bluralpha"
         dx="4"
         dy="4"
         result="offsetBlur" />
      <feMerge
         id="feMerge4181">
        <feMergeNode
           id="feMergeNode4183"
           in="offsetBlur" />
        <feMergeNode
           id="feMergeNode4185"
           in="SourceGraphic" />
      </feMerge>
    </filter>
    <filter
       id="filter4197"
       inkscape:label="Drop shadow"
       width="1.5"
       height="1.5"
       x="-0.25"
       y="-0.25"
       style="color-interpolation-filters:sRGB">
      <feGaussianBlur
         id="feGaussianBlur4199"
         in="SourceAlpha"
         stdDeviation="2"
         result="blur" />
      <feColorMatrix
         id="feColorMatrix4201"
         result="bluralpha"
         type="matrix"
         values="1 0 0 0 0 0 1 0 0 0 0 0 1 0 0 0 0 0 0.5 0 " />
      <feOffset
         id="feOffset4203"
         in="bluralpha"
         dx="4"
         dy="4"
         result="offsetBlur" />
      <feMerge
         id="feMerge4205">
        <feMergeNode
           id="feMergeNode4207"
           in="offsetBlur" />
        <feMergeNode
           id="feMergeNode4209"
           in="SourceGraphic" />
      </feMerge>
    </filter>
    <filter
       id="filter4276"
       inkscape:label="Drop shadow"
       width="1.5"
       height="1.5"
       x="-0.25"
       y="-0.25"
       style="color-interpolation-filters:sRGB">
      <feGaussianBlur
         id="feGaussianBlur4278"
         in="SourceAlpha"
         stdDeviation="2"
         result="blur" />
      <feColorMatrix
         id="feColorMatrix4280"
         result="bluralpha"
         type="matrix"
         values="1 0 0 0 0 0 1 0 0 0 0 0 1 0 0 0 0 0 0.5 0 " />
      <feOffset
         id="feOffset4282"
         in="bluralpha"
         dx="4"
         dy="4"
         result="offsetBlur" />
      <feMerge
         id="feMerge4284">
        <feMergeNode
           id="feMergeNode4286"
           in="offsetBlur" />
        <feMergeNode
           id="feMergeNode4288"
           in="SourceGraphic" />
      </feMerge>
    </filter>
    <filter
       id="filter3171"
       inkscape:label="Drop shadow"
       width="1.5"
       height="1.5"
       x="-0.25"
       y="-0.25"
       style="color-interpolation-filters:sRGB">
      <feGaussianBlur
         id="feGaussianBlur3173"
         in="SourceAlpha"
         stdDeviation="2"
         result="blur" />
      <feColorMatrix
         id="feColorMatrix3175"
         result="bluralpha"
         type="matrix"
         values="1 0 0 0 0 0 1 0 0 0 0 0 1 0 0 0 0 0 0.5 0 " />
      <feOffset
         id="feOffset3177"
         in="bluralpha"
         dx="4"
         dy="4"
         result="offsetBlur" />
      <feMerge
         id="feMerge3179">
        <feMergeNode
           id="feMergeNode3181"
           in="offsetBlur" />
        <feMergeNode
           id="feMergeNode3183"
           in="SourceGraphic" />
      </feMerge>
    </filter>
    <filter
       id="filter3185"
       inkscape:label="Drop shadow"
       width="1.5"
       height="1.5"
       x="-0.25"
       y="-0.25"
       style="color-interpolation-filters:sRGB">
      <feGaussianBlur
         id="feGaussianBlur3187"
         in="SourceAlpha"
         stdDeviation="2"
         result="blur" />
      <feColorMatrix
         id="feColorMatrix3189"
         result="bluralpha"
         type="matrix"
         values="1 0 0 0 0 0 1 0 0 0 0 0 1 0 0 0 0 0 0.5 0 " />
      <feOffset
         id="feOffset3191"
         in="bluralpha"
         dx="4"
         dy="4"
         result="offsetBlur" />
      <feMerge
         id="feMerge3193">
        <feMergeNode
           id="feMergeNode3195"
           in="offsetBlur" />
        <feMergeNode
           id="feMergeNode3197"
           in="SourceGraphic" />
      </feMerge>
    </filter>
    <linearGradient
       y2="137.38029"
       x2="223.6167"
       y1="76.3564"
       x1="223.6167"
       gradientUnits="userSpaceOnUse"
       id="SVGID_1_"
       gradientTransform="translate(-419.62671,208.8676)">
      <stop
         id="stop160"
         style="stop-color:#3FA9F5"
         offset="0" />
      <stop
         id="stop162"
         style="stop-color:#0071BC"
         offset="1" />
    </linearGradient>
    <linearGradient
       y2="505.11819"
       x2="147.7168"
       y1="437.05859"
       x1="147.7168"
       gradientUnits="userSpaceOnUse"
       id="SVGID_13_">
      <stop
         id="stop4080"
         style="stop-color:#3FA9F5"
         offset="0" />
      <stop
         id="stop4082"
         style="stop-color:#0071BC"
         offset="1" />
    </linearGradient>
    <linearGradient
       y2="137.38029"
       x2="223.6167"
       y1="76.3564"
       x1="223.6167"
       gradientUnits="userSpaceOnUse"
       id="SVGID_1_-0"
       gradientTransform="translate(-419.62671,208.8676)">
      <stop
         id="stop160-4"
         style="stop-color:#3FA9F5"
         offset="0" />
      <stop
         id="stop162-7"
         style="stop-color:#0071BC"
         offset="1" />
    </linearGradient>
    <linearGradient
       y2="228.2177"
       x2="223.6167"
       y1="166.2236"
       x1="223.6167"
       gradientUnits="userSpaceOnUse"
       id="SVGID_2_"
       gradientTransform="translate(405.03952,235.75369)">
      <stop
         id="stop3925"
         style="stop-color:#F8BB5E"
         offset="0" />
      <stop
         id="stop3927"
         style="stop-color:#FF931E"
         offset="1" />
    </linearGradient>
    <linearGradient
       y2="403.2283"
       x2="223.6167"
       y1="340.418"
       x1="223.6167"
       gradientUnits="userSpaceOnUse"
       id="SVGID_4_"
       gradientTransform="translate(279.85374,93.654148)">
      <stop
         id="stop3959"
         style="stop-color:#AE0000"
         offset="0" />
      <stop
         id="stop3961"
         style="stop-color:#740000"
         offset="1" />
    </linearGradient>
    <linearGradient
       inkscape:collect="always"
       xlink:href="#SVGID_4_"
       id="linearGradient6498"
       gradientUnits="userSpaceOnUse"
       gradientTransform="translate(279.85374,93.654148)"
       x1="223.6167"
       y1="340.418"
       x2="223.6167"
       y2="403.2283" />
    <linearGradient
       y2="137.38029"
       x2="223.6167"
       y1="76.3564"
       x1="223.6167"
       gradientTransform="translate(-419.62671,208.8676)"
       gradientUnits="userSpaceOnUse"
       id="linearGradient3693"
       xlink:href="#SVGID_1_"
       inkscape:collect="always" />
  </defs>
  <sodipodi:namedview
     id="base"
     pagecolor="#ffffff"
     bordercolor="#666666"
     borderopacity="1.0"
     inkscape:pageopacity="0.0"
     inkscape:pageshadow="2"
     inkscape:zoom="0.95404416"
     inkscape:cx="720.54148"
     inkscape:cy="61.543458"
     inkscape:document-units="px"
     inkscape:current-layer="layer1"
     showgrid="false"
     inkscape:window-width="1920"
     inkscape:window-height="1016"
     inkscape:window-x="1920"
     inkscape:window-y="27"
     inkscape:window-maximized="1"
     showguides="true"
     inkscape:guide-bbox="true" />
  <metadata
     id="metadata7">
    <rdf:RDF>
      <cc:Work
         rdf:about="">
        <dc:format>image/svg+xml</dc:format>
        <dc:type
           rdf:resource="http://purl.org/dc/dcmitype/StillImage" />
        <dc:title></dc:title>
      </cc:Work>
    </rdf:RDF>
  </metadata>
  <g
     inkscape:label="レイヤー 1"
     inkscape:groupmode="layer"
     id="layer1"
     transform="translate(0,-652.36218)">
    <rect
       style="fill:#ffffff;fill-opacity:1;stroke:#0071bc;stroke-width:2.41384912;stroke-miterlimit:4;stroke-dasharray:none;stroke-opacity:1;filter:url(#filter5131)"
       id="rect2985"
       width="729.8205"
       height="71.39624"
       x="19.312584"
       y="956.98248"
       rx="0"
       ry="0" />
    <rect
       y="823.5929"
       x="330.27802"
       height="133.88632"
       width="218.29544"
       id="rect4518"
       style="fill:#ffffff;fill-opacity:1;stroke:#2e3436;stroke-width:2;stroke-miterlimit:4;stroke-dasharray:none;stroke-opacity:1;filter:url(#filter4197)" />
    <text
       sodipodi:linespacing="125%"
       id="text4520"
       y="868.90601"
       x="441.69138"
       style="font-style:normal;font-variant:normal;font-weight:900;font-stretch:normal;font-size:48px;line-height:125%;font-family:'M+ 1p';-inkscape-font-specification:'M+ 1p Heavy';text-align:center;letter-spacing:0px;word-spacing:0px;writing-mode:lr-tb;text-anchor:middle;fill:#000000;fill-opacity:1;stroke:#000000;stroke-width:0.25;stroke-miterlimit:4;stroke-dasharray:none;stroke-opacity:1;"
       xml:space="preserve"><tspan
         style="font-style:normal;font-variant:normal;font-weight:900;font-stretch:normal;font-size:48px;line-height:125%;font-family:'M+ 1p';-inkscape-font-specification:'M+ 1p Heavy';text-align:center;writing-mode:lr-tb;text-anchor:middle;stroke-width:0.25;stroke-miterlimit:4;stroke-dasharray:none"
         y="868.90601"
         x="441.69138"
         id="tspan4522"
         sodipodi:role="line"><tspan
           id="tspan4141"
           style="font-style:normal;font-variant:normal;font-weight:900;font-stretch:normal;font-size:48px;line-height:125%;font-family:'M+ 1p';-inkscape-font-specification:'M+ 1p Heavy';text-align:center;writing-mode:lr-tb;text-anchor:middle;fill:#007a9e;fill-opacity:1;stroke:#000000;stroke-width:0.25;stroke-miterlimit:4;stroke-dasharray:none;stroke-opacity:1">My</tspan><tspan
           id="tspan4147"
           style="font-style:normal;font-variant:normal;font-weight:900;font-stretch:normal;font-size:48px;line-height:125%;font-family:'M+ 1p';-inkscape-font-specification:'M+ 1p Heavy';text-align:center;writing-mode:lr-tb;text-anchor:middle;fill:#e99d27;fill-opacity:1;stroke:#000000;stroke-width:0.25;stroke-miterlimit:4;stroke-dasharray:none;stroke-opacity:1">SQL</tspan></tspan></text>
    <rect
       style="fill:#ffffff;fill-opacity:1;stroke:#2e3436;stroke-width:2;stroke-miterlimit:4;stroke-dasharray:none;stroke-opacity:1;filter:url(#filter4197)"
       id="rect4524"
       width="216.72318"
       height="67.464355"
       x="330.27802"
       y="890.01483" />
    <text
       xml:space="preserve"
       style="font-style:normal;font-weight:normal;font-size:30px;line-height:125%;font-family:Sans;letter-spacing:0px;word-spacing:0px;fill:#000000;fill-opacity:1;stroke:none"
       x="395.8746"
       y="1005.4951"
       id="text3769"
       sodipodi:linespacing="125%"><tspan
         sodipodi:role="line"
         id="tspan3771"
         x="395.8746"
         y="1005.4951">ライブラリー</tspan></text>
    <rect
       style="fill:#8a171f;fill-opacity:1;stroke:#2e3436;stroke-width:2;stroke-miterlimit:4;stroke-dasharray:none;stroke-opacity:1;filter:url(#filter4173)"
       id="rect4530"
       width="201.4939"
       height="133.88632"
       x="546.48993"
       y="823.5929" />
    <text
       xml:space="preserve"
       style="font-style:normal;font-variant:normal;font-weight:900;font-stretch:normal;font-size:55.02504349px;line-height:125%;font-family:'M+ 1p';-inkscape-font-specification:'M+ 1p Heavy';text-align:center;letter-spacing:0px;word-spacing:0px;writing-mode:lr-tb;text-anchor:middle;fill:#ffffff;fill-opacity:1;stroke:#000000;stroke-width:0.25;stroke-miterlimit:4;stroke-dasharray:none;stroke-opacity:1;"
       x="647.63458"
       y="872.74304"
       id="text4532"
       sodipodi:linespacing="125%"><tspan
         style="font-style:normal;font-variant:normal;font-weight:900;font-stretch:normal;font-size:55.02504349px;line-height:125%;font-family:'M+ 1p';-inkscape-font-specification:'M+ 1p Heavy';text-align:center;writing-mode:lr-tb;text-anchor:middle;stroke-width:0.25;stroke-miterlimit:4;stroke-dasharray:none"
         sodipodi:role="line"
         id="tspan4534"
         x="647.63458"
         y="872.74304">Ruby</tspan></text>
    <rect
       y="889.49072"
       x="546.48993"
       height="67.988441"
       width="201.4939"
       id="rect4536"
       style="fill:#ffffff;fill-opacity:1;stroke:#2e3436;stroke-width:2;stroke-miterlimit:4;stroke-dasharray:none;stroke-opacity:1;filter:url(#filter4173)" />
    <g
       style=""
       id="g4647"
       transform="matrix(0.73010099,0,0,0.73010099,259.72343,584.47595)">
      <path
         inkscape:connector-curvature="0"
         d="m 470.75274,454.90715 c -1.336,-0.292 -2.281,-0.45 -3.442,-0.45 -2.847,0 -5.33,0.832 -7.391,2.467 -0.091,0.062 -0.192,0.142 -0.303,0.247 -0.231,0.197 -0.452,0.405 -0.668,0.621 -1.478,1.313 -2.76,1.95 -2.76,-1.235 l 0,-0.666 c 0,-0.404 -0.327,-0.733 -0.732,-0.733 l -2.101,0 c -0.198,0 -0.388,0.081 -0.525,0.223 -0.139,0.143 -0.212,0.335 -0.206,0.533 0.105,3.333 0.215,6.778 0.215,9.622 l 0,18.749 c 0,0.403 0.328,0.731 0.732,0.731 l 2.209,0 c 0.404,0 0.732,-0.328 0.732,-0.731 l 0,-9.913 c 0,-1.371 0.107,-3.805 0.309,-4.813 1.569,-7.798 4.982,-11.59 10.435,-11.59 0.979,0 1.881,0.164 2.874,0.364 0.048,0.01 0.096,0.013 0.144,0.013 0.148,0 0.294,-0.043 0.417,-0.129 0.163,-0.113 0.273,-0.288 0.306,-0.485 l 0.323,-1.993 c 0.062,-0.386 -0.187,-0.752 -0.568,-0.832 z"
         id="path3948" />
      <path
         inkscape:connector-curvature="0"
         d="m 444.70074,454.90715 c -1.337,-0.292 -2.281,-0.45 -3.442,-0.45 -2.847,0 -5.33,0.832 -7.391,2.467 -0.092,0.062 -0.192,0.142 -0.303,0.247 -0.231,0.197 -0.452,0.405 -0.668,0.621 -1.478,1.313 -2.759,1.95 -2.759,-1.235 l 0,-0.666 c 0,-0.404 -0.327,-0.733 -0.732,-0.733 l -2.101,0 c -0.198,0 -0.388,0.081 -0.526,0.223 -0.138,0.143 -0.212,0.335 -0.206,0.533 0.105,3.333 0.215,6.778 0.215,9.622 l 0,18.749 c 0,0.403 0.327,0.731 0.732,0.731 l 2.209,0 c 0.404,0 0.732,-0.328 0.732,-0.731 l 0,-9.913 c 0,-1.371 0.107,-3.805 0.309,-4.813 1.569,-7.798 4.983,-11.59 10.435,-11.59 0.979,0 1.881,0.164 2.874,0.364 0.048,0.01 0.096,0.013 0.144,0.013 0.148,0 0.294,-0.043 0.417,-0.129 0.163,-0.113 0.273,-0.288 0.306,-0.485 l 0.323,-1.993 c 0.061,-0.386 -0.188,-0.752 -0.568,-0.832 z"
         id="path3950" />
      <path
         inkscape:connector-curvature="0"
         d="m 559.79974,456.49815 c -2.512,-1.775 -5.292,-2.041 -6.726,-2.041 -2.91,0 -5.648,0.913 -7.822,2.496 -0.005,0.003 -0.01,0.003 -0.014,0.007 -1.004,0.649 -2.627,0.911 -2.618,-0.624 l 0,-0.021 c 0.002,-0.107 -0.003,-0.198 -0.013,-0.278 l -0.008,-0.181 c -0.019,-0.391 -0.34,-0.699 -0.731,-0.699 l -2.102,0 c -0.203,0 -0.396,0.086 -0.535,0.232 -0.138,0.148 -0.209,0.348 -0.195,0.549 0.152,2.282 0.214,4.17 0.214,6.526 l 0,21.819 c 0,0.403 0.328,0.731 0.731,0.731 l 2.209,0 c 0.404,0 0.732,-0.328 0.732,-0.731 l 0,-17.51 c 0,-0.815 0.253,-1.763 0.49,-2.378 0.004,-0.01 0.006,-0.016 0.01,-0.026 1.043,-3.042 4.224,-6.118 8.417,-6.474 3.236,0 8.327,2.358 9.024,8.226 0.016,0.15 0.03,0.299 0.042,0.443 0.004,0.05 0.008,0.099 0.011,0.148 0.005,0.07 0.009,0.14 0.014,0.209 0.009,0.19 0.015,0.386 0.015,0.584 0,0.332 0.006,0.636 0.017,0.909 l 0,15.868 c 0,0.403 0.328,0.731 0.733,0.731 l 2.208,0 c 0.404,0 0.732,-0.328 0.732,-0.731 l 0,-16.271 c 0,-5.372 -1.627,-9.246 -4.835,-11.513 z"
         id="path3952" />
      <path
         inkscape:connector-curvature="0"
         d="m 636.02374,481.83915 c -0.133,-0.111 -0.301,-0.173 -0.473,-0.173 -0.04,0 -0.08,0.005 -0.12,0.01 -0.587,0.097 -0.965,0.097 -1.442,0.097 -1.147,0 -2.177,-0.334 -2.177,-4.386 l 0,-9.913 c 0,-2.344 -0.179,-5.367 -1.583,-7.971 -1.822,-3.384 -5.181,-5.099 -9.978,-5.099 -2.475,0 -6.217,0.516 -9.99,2.974 -0.315,0.205 -0.422,0.614 -0.25,0.949 l 0.861,1.67 c 0.098,0.188 0.272,0.325 0.478,0.377 0.058,0.013 0.116,0.019 0.173,0.019 0.151,0 0.299,-0.046 0.424,-0.133 2.314,-1.64 5.186,-2.506 8.305,-2.506 3.995,0 6.004,1.854 7,3.939 0,0 0,0 0,0.002 1.004,2.219 -0.561,4.402 -2.285,4.584 -0.085,0.005 -0.17,0.006 -0.254,0.012 -0.014,0 -0.028,0 -0.042,0 -0.055,-0.002 -0.101,0.002 -0.143,0.009 -10.978,0.628 -16.538,4.312 -16.538,10.98 0,2.028 0.803,4.057 2.202,5.569 1.233,1.332 3.56,2.92 7.635,2.92 3.471,0 6.271,-1.111 8.325,-2.472 0.061,-0.032 0.13,-0.076 0.211,-0.141 0.023,-0.017 0.042,-0.029 0.064,-0.047 0.128,-0.09 0.256,-0.18 0.378,-0.269 1.275,-0.825 1.969,-0.351 2.623,0.502 0.002,0.005 0.006,0.006 0.008,0.008 0.84,1.143 2.161,1.72 3.962,1.72 0.846,0 1.591,-0.094 2.344,-0.296 0.32,-0.086 0.543,-0.374 0.543,-0.706 l 0,-1.672 c -0.002,-0.215 -0.097,-0.417 -0.261,-0.557 z m -18.252,0.529 c -3.042,0 -6.111,-1.725 -6.111,-5.573 0,-4.862 5.936,-6.58 12.167,-7.043 2.32,-0.043 4.097,2.161 4.311,4.575 l 0,0.988 c -0.062,0.647 -0.246,1.289 -0.568,1.889 -0.162,0.263 -0.356,0.556 -0.589,0.864 -0.04,0.048 -0.075,0.092 -0.103,0.134 -1.442,1.848 -4.223,4.166 -9.107,4.166 z"
         id="path3954" />
      <path
         inkscape:connector-curvature="0"
         d="m 599.89174,455.15715 -2.047,0 c -0.393,0 -0.716,0.31 -0.731,0.704 -0.066,1.617 -0.892,1.835 -2.703,0.766 -0.009,-0.008 -0.018,-0.013 -0.027,-0.021 -0.178,-0.118 -0.362,-0.229 -0.546,-0.339 -0.011,-0.005 -0.02,-0.011 -0.031,-0.019 -0.087,-0.059 -0.168,-0.102 -0.244,-0.139 -1.982,-1.097 -4.307,-1.652 -6.924,-1.652 -3.739,0 -7.429,1.549 -10.122,4.249 -2.082,2.089 -4.564,5.828 -4.564,11.785 0,3.816 1.346,7.414 3.792,10.122 2.595,2.873 6.234,4.458 10.248,4.458 3.111,0 5.514,-0.822 7.335,-1.898 0.004,0 0.007,-0.003 0.012,-0.004 1.954,-0.874 3.603,-2.182 3.135,2.233 -0.875,5.677 -4.519,8.764 -10.482,8.764 -4.175,0 -7.31,-1.406 -9.204,-2.583 -0.118,-0.073 -0.251,-0.111 -0.387,-0.111 -0.06,0 -0.122,0.008 -0.182,0.022 -0.193,0.051 -0.358,0.177 -0.456,0.351 l -0.97,1.725 c -0.189,0.335 -0.085,0.763 0.237,0.972 2.853,1.864 6.91,2.976 10.854,2.976 2.689,0 9.293,-0.624 12.493,-6.413 1.385,-2.482 2.031,-5.968 2.031,-10.968 l 0,-17.456 c 0,-2.476 0.07,-4.679 0.214,-6.738 0.014,-0.203 -0.057,-0.401 -0.195,-0.55 -0.139,-0.15 -0.332,-0.236 -0.536,-0.236 z m -16.892,26.028 c -0.605,-0.24 -7.609,-3.216 -7.013,-11.813 0.551,-7.939 5.716,-10.454 6.517,-10.796 1.278,-0.501 2.701,-0.77 4.242,-0.77 1.665,0 3.113,0.327 4.354,0.871 6.845,3.873 7.696,16.454 0.884,21.469 -1.592,1 -3.436,1.573 -5.345,1.573 -1.343,10e-4 -2.553,-0.192 -3.639,-0.534 z"
         id="path3956" />
      <path
         style="fill:url(#linearGradient6498)"
         inkscape:connector-curvature="0"
         d="m 501.11674,440.93115 c -2.337,2.339 -4.109,5.342 -5.032,8.657 -6.076,-0.094 -12.171,2.271 -17.007,7.109 -8.142,8.141 -10.674,22.911 0.667,34.251 9.542,9.545 23.793,9.688 33.145,0.336 4.421,-4.424 7.236,-10.507 7.297,-16.94 3.14,-0.837 6.125,-2.508 8.67,-5.049 6.956,-6.959 9.086,-18.919 -0.311,-28.318 -7.833,-7.83 -19.626,-7.848 -27.429,-0.046 z m 25.622,20.423 c -1.335,1.339 -3.045,2.324 -4.932,2.864 -3.027,0.868 -4.657,0.776 -5.698,2.515 -1.041,1.736 -0.926,1.941 -0.88,5.193 0.056,3.689 -1.333,7.515 -4.813,10.996 -5.32,5.317 -15.14,6.504 -22.366,-0.722 -5.693,-5.693 -8.365,-15.278 -0.778,-22.864 2.816,-2.814 6.866,-4.479 11.124,-4.403 2.961,0.053 3.306,0.161 5.212,-0.703 1.909,-0.868 1.082,-2.799 2.222,-6.205 0.556,-1.66 1.545,-3.294 3.092,-4.844 4.126,-4.125 11.721,-5.071 17.285,0.491 4.533,4.535 6.455,11.76 0.532,17.682 z"
         id="path3963" />
    </g>
    <text
       sodipodi:linespacing="125%"
       id="text4546"
       y="779.7655"
       x="603.63849"
       style="font-style:normal;font-weight:normal;font-size:30px;line-height:125%;font-family:Sans;text-align:center;letter-spacing:0px;word-spacing:0px;text-anchor:middle;fill:#a40000;fill-opacity:1;stroke:none"
       xml:space="preserve"><tspan
         y="779.7655"
         x="603.63849"
         id="tspan4548"
         sodipodi:role="line">API</tspan></text>
    <g
       id="g5112"
       transform="translate(-318.96948,658.54347)"
       style="filter:url(#filter3185)">
      <rect
         y="8.3621826"
         x="335.2095"
         height="49.646477"
         width="729.98199"
         id="rect4480"
         style="fill:#ffffff;fill-opacity:1;stroke:#2e3436;stroke-width:2.09331679;stroke-miterlimit:4;stroke-dasharray:none;stroke-opacity:1"
         ry="0" />
      <text
         sodipodi:linespacing="125%"
         id="text4482"
         y="48.811401"
         x="614.4469"
         style="font-style:normal;font-weight:normal;font-size:40px;line-height:125%;font-family:Sans;letter-spacing:0px;word-spacing:0px;fill:#000000;fill-opacity:1;stroke:none"
         xml:space="preserve"><tspan
           y="48.811401"
           x="614.4469"
           id="tspan4484"
           sodipodi:role="line">ユーザー</tspan></text>
    </g>
    <path
       inkscape:connector-curvature="0"
       id="path3205"
       d="m 435.70189,809.97853 0,-85"
       style="fill:none;stroke:#4e9a06;stroke-width:5;stroke-linecap:butt;stroke-linejoin:miter;stroke-miterlimit:4;stroke-dasharray:none;stroke-opacity:1;marker-end:url(#marker9780)" />
    <path
       inkscape:connector-curvature="0"
       id="path3207"
       d="m 453.70189,724.97853 0,82"
       style="fill:none;stroke:#4e9a06;stroke-width:5;stroke-linecap:butt;stroke-linejoin:miter;stroke-miterlimit:4;stroke-dasharray:none;stroke-opacity:1;marker-end:url(#marker9874)" />
    <path
       style="fill:none;stroke:#a40000;stroke-width:5;stroke-linecap:butt;stroke-linejoin:miter;stroke-miterlimit:4;stroke-dasharray:none;stroke-opacity:1;marker-end:url(#Arrow1SendAPI)"
       d="m 635.70189,813.12304 0,-85"
       id="path3211"
       inkscape:connector-curvature="0" />
    <path
       style="fill:none;stroke:#a40000;stroke-width:5;stroke-linecap:butt;stroke-linejoin:miter;stroke-miterlimit:4;stroke-dasharray:none;stroke-opacity:1;marker-end:url(#Arrow1SendAPI)"
       d="m 653.70189,728.12304 0,82"
       id="path3213"
       inkscape:connector-curvature="0" />
    <g
       transform="matrix(0.66784503,0,0,0.66784503,10.345602,638.12886)"
       id="layer1-3"
       inkscape:label="レイヤー 1">
      <g
         id="g4460">
        <path
           inkscape:connector-curvature="0"
           d="m 595.93852,420.61969 c -1.336,-0.291 -2.281,-0.448 -3.442,-0.448 -2.847,0 -5.33,0.831 -7.391,2.466 -0.091,0.062 -0.192,0.14 -0.303,0.247 -0.231,0.196 -0.452,0.406 -0.668,0.621 -1.478,1.313 -2.76,1.951 -2.76,-1.236 l 0,-0.666 c 0,-0.405 -0.327,-0.732 -0.732,-0.732 l -2.101,0 c -0.198,0 -0.388,0.08 -0.525,0.223 -0.139,0.142 -0.212,0.334 -0.206,0.532 0.105,3.332 0.215,6.777 0.215,9.621 l 0,18.749 c 0,0.405 0.328,0.732 0.732,0.732 l 2.209,0 c 0.404,0 0.732,-0.327 0.732,-0.732 l 0,-9.913 c 0,-1.37 0.107,-3.805 0.309,-4.813 1.569,-7.797 4.982,-11.588 10.435,-11.588 0.979,0 1.881,0.164 2.874,0.362 0.048,0.01 0.096,0.015 0.144,0.015 0.148,0 0.294,-0.045 0.417,-0.131 0.163,-0.112 0.273,-0.288 0.306,-0.484 l 0.323,-1.994 c 0.062,-0.383 -0.187,-0.749 -0.568,-0.831 z"
           id="path3916" />
        <path
           inkscape:connector-curvature="0"
           d="m 684.98552,422.21169 c -2.512,-1.776 -5.292,-2.04 -6.726,-2.04 -2.91,0 -5.648,0.912 -7.822,2.495 -0.005,0.003 -0.01,0.004 -0.014,0.008 -1.004,0.649 -2.627,0.91 -2.618,-0.625 l 0,-0.022 c 0.002,-0.105 -0.003,-0.197 -0.013,-0.276 l -0.008,-0.182 c -0.019,-0.391 -0.34,-0.698 -0.731,-0.698 l -2.102,0 c -0.203,0 -0.396,0.083 -0.535,0.231 -0.138,0.148 -0.209,0.347 -0.195,0.55 0.152,2.28 0.214,4.171 0.214,6.524 l 0,21.82 c 0,0.405 0.328,0.732 0.731,0.732 l 2.209,0 c 0.404,0 0.732,-0.327 0.732,-0.732 l 0,-17.51 c 0,-0.813 0.253,-1.762 0.49,-2.378 0.004,-0.009 0.006,-0.016 0.01,-0.024 1.043,-3.043 4.224,-6.121 8.417,-6.475 3.236,0.002 8.327,2.358 9.024,8.226 0.016,0.15 0.03,0.299 0.042,0.443 0.004,0.049 0.008,0.099 0.011,0.149 0.005,0.07 0.009,0.14 0.014,0.208 0.009,0.192 0.015,0.386 0.015,0.583 0,0.335 0.006,0.637 0.017,0.91 l 0,15.868 c 0,0.405 0.328,0.732 0.733,0.732 l 2.208,0 c 0.404,0 0.732,-0.327 0.732,-0.732 l 0,-16.271 c 0,-5.372 -1.627,-9.246 -4.835,-11.514 z"
           id="path3918" />
        <path
           inkscape:connector-curvature="0"
           d="m 761.20952,447.55369 c -0.133,-0.113 -0.301,-0.173 -0.473,-0.173 -0.04,0 -0.08,0.003 -0.12,0.01 -0.587,0.098 -0.965,0.098 -1.442,0.098 -1.147,0 -2.177,-0.336 -2.177,-4.387 l 0,-9.913 c 0,-2.343 -0.179,-5.368 -1.583,-7.971 -1.822,-3.384 -5.181,-5.1 -9.978,-5.1 -2.475,0 -6.217,0.516 -9.99,2.975 -0.315,0.205 -0.422,0.615 -0.25,0.949 l 0.861,1.669 c 0.098,0.189 0.272,0.326 0.478,0.376 0.058,0.015 0.116,0.021 0.173,0.021 0.151,0 0.299,-0.046 0.424,-0.135 2.314,-1.639 5.186,-2.506 8.305,-2.506 3.995,0 6.004,1.854 7,3.94 l 0,0 c 1.004,2.22 -0.561,4.403 -2.285,4.584 -0.085,0.004 -0.17,0.008 -0.254,0.013 -0.014,-0.001 -0.028,10e-4 -0.042,0 -0.055,-0.001 -0.101,10e-4 -0.143,0.009 -10.978,0.626 -16.538,4.313 -16.538,10.98 0,2.028 0.803,4.057 2.202,5.568 1.233,1.334 3.56,2.922 7.635,2.922 3.471,0 6.271,-1.111 8.325,-2.472 0.061,-0.032 0.13,-0.077 0.211,-0.141 0.023,-0.018 0.042,-0.031 0.064,-0.048 0.128,-0.089 0.256,-0.177 0.378,-0.268 1.275,-0.824 1.969,-0.351 2.623,0.503 0.002,0.003 0.006,0.005 0.008,0.008 0.84,1.141 2.161,1.717 3.962,1.717 0.846,0 1.591,-0.093 2.344,-0.293 0.32,-0.085 0.543,-0.375 0.543,-0.708 l 0,-1.669 c -0.002,-0.214 -0.097,-0.419 -0.261,-0.558 z m -18.252,0.527 c -3.042,0 -6.111,-1.722 -6.111,-5.572 0,-4.862 5.936,-6.58 12.167,-7.043 2.32,-0.043 4.097,2.161 4.311,4.575 l 0,0.989 c -0.062,0.647 -0.246,1.289 -0.568,1.888 -0.162,0.265 -0.356,0.557 -0.589,0.865 -0.04,0.048 -0.075,0.093 -0.103,0.133 -1.442,1.847 -4.223,4.165 -9.107,4.165 z"
           id="path3920" />
        <path
           inkscape:connector-curvature="0"
           d="m 725.07752,420.87269 -2.047,0 c -0.393,0 -0.716,0.31 -0.731,0.703 -0.066,1.619 -0.892,1.836 -2.703,0.765 -0.009,-0.005 -0.018,-0.013 -0.027,-0.02 -0.178,-0.118 -0.362,-0.23 -0.546,-0.337 -0.011,-0.008 -0.02,-0.014 -0.031,-0.021 -0.087,-0.057 -0.168,-0.103 -0.244,-0.139 -1.982,-1.096 -4.307,-1.65 -6.924,-1.65 -3.739,0 -7.429,1.548 -10.122,4.249 -2.082,2.087 -4.564,5.827 -4.564,11.784 0,3.818 1.346,7.413 3.792,10.121 2.595,2.875 6.234,4.458 10.248,4.458 3.111,0 5.514,-0.819 7.335,-1.896 0.004,-0.002 0.007,-0.003 0.012,-0.005 1.954,-0.875 3.603,-2.184 3.135,2.233 -0.875,5.677 -4.519,8.764 -10.482,8.764 -4.175,0 -7.31,-1.405 -9.204,-2.584 -0.118,-0.073 -0.251,-0.109 -0.387,-0.109 -0.06,0 -0.122,0.006 -0.182,0.023 -0.193,0.049 -0.358,0.176 -0.456,0.35 l -0.97,1.724 c -0.189,0.336 -0.085,0.76 0.237,0.972 2.853,1.862 6.91,2.974 10.854,2.974 2.689,0 9.293,-0.625 12.493,-6.412 1.385,-2.481 2.031,-5.968 2.031,-10.969 l 0,-17.456 c 0,-2.474 0.07,-4.678 0.214,-6.738 0.014,-0.203 -0.057,-0.401 -0.195,-0.55 -0.139,-0.151 -0.332,-0.234 -0.536,-0.234 z m -16.892,26.027 c -0.605,-0.24 -7.609,-3.216 -7.013,-11.812 0.551,-7.939 5.716,-10.454 6.517,-10.798 1.278,-0.5 2.701,-0.768 4.242,-0.768 1.665,0 3.113,0.327 4.354,0.873 6.845,3.871 7.696,16.452 0.884,21.467 -1.592,1 -3.436,1.572 -5.345,1.572 -1.343,0 -2.553,-0.192 -3.639,-0.534 z"
           id="path3922" />
        <path
           style="fill:url(#SVGID_2_)"
           inkscape:connector-curvature="0"
           d="m 626.30252,406.64669 c -2.337,2.337 -4.109,5.343 -5.032,8.655 -6.076,-0.094 -12.171,2.272 -17.007,7.11 -8.142,8.141 -10.674,22.912 0.667,34.253 9.542,9.543 23.793,9.687 33.145,0.334 4.421,-4.424 7.236,-10.507 7.297,-16.941 3.14,-0.836 6.125,-2.507 8.67,-5.049 6.956,-6.959 9.086,-18.919 -0.311,-28.318 -7.833,-7.831 -19.626,-7.848 -27.429,-0.044 z m 25.622,20.423 c -1.335,1.336 -3.045,2.324 -4.932,2.862 -3.027,0.868 -4.657,0.778 -5.698,2.515 -1.041,1.736 -0.926,1.941 -0.88,5.194 0.056,3.689 -1.333,7.514 -4.813,10.996 -5.32,5.318 -15.14,6.504 -22.366,-0.722 -5.693,-5.695 -8.365,-15.278 -0.778,-22.865 2.816,-2.813 6.866,-4.477 11.124,-4.401 2.961,0.051 3.306,0.16 5.212,-0.704 1.909,-0.87 1.082,-2.8 2.222,-6.205 0.556,-1.66 1.545,-3.295 3.092,-4.844 4.126,-4.126 11.721,-5.072 17.285,0.49 4.533,4.535 6.455,11.76 0.532,17.684 z"
           id="path3929" />
        <path
           inkscape:connector-curvature="0"
           d="m 557.08552,420.17169 c -3.604,0 -5.78,1.055 -7.803,2.675 0,10e-4 -10e-4,10e-4 -10e-4,0.002 -2.14,1.482 -3.267,1.373 -5.033,0.007 -0.008,-0.007 -0.015,-0.009 -0.023,-0.015 -1.786,-1.704 -4.111,-2.669 -6.696,-2.669 -2.797,0 -5.133,0.737 -7.113,2.275 -0.042,0.029 -0.085,0.062 -0.129,0.102 -0.878,0.785 -2.285,1.01 -2.444,-0.238 l -0.015,-0.316 c 0,-0.087 -0.002,-0.167 -0.011,-0.234 l -0.009,-0.19 c -0.019,-0.391 -0.341,-0.697 -0.732,-0.697 l -2.1,0 c -0.204,0 -0.397,0.083 -0.536,0.232 -0.139,0.149 -0.209,0.347 -0.195,0.55 0.148,2.118 0.214,4.13 0.214,6.523 l 0,21.82 c 0,0.405 0.328,0.732 0.732,0.732 l 2.209,0 c 0.404,0 0.732,-0.327 0.732,-0.732 l 0,-17.457 c 0,-1.086 0.264,-1.975 0.486,-2.529 1.183,-3.106 4.304,-6.436 8.371,-6.436 4.432,0 7.296,3.476 7.296,8.857 l 0,17.564 c 0,0.405 0.328,0.732 0.732,0.732 l 2.21,0 c 0.404,0 0.732,-0.327 0.732,-0.732 l 0,-18.317 c 0,-1.093 0.288,-1.956 0.54,-2.585 1.117,-2.651 4.065,-5.519 7.887,-5.519 4.983,0 7.727,3.681 7.727,10.366 l 0,16.055 c 0,0.405 0.328,0.732 0.732,0.732 l 2.209,0 c 0.403,0 0.731,-0.327 0.731,-0.732 l 0,-16.001 c 0,-12.828 -8.189,-13.825 -10.7,-13.825 z"
           id="path3965" />
      </g>
    </g>
    <g
       transform="matrix(0.69469814,0,0,0.69469814,73.087667,746.2996)"
       id="layer1-6"
       inkscape:label="レイヤー 1">
      <g
         transform="translate(520,37.142857)"
         id="g3685">
        <path
           inkscape:connector-curvature="0"
           d="m -228.72771,306.3346 c -1.336,-0.29 -2.281,-0.448 -3.442,-0.448 -2.847,0 -5.33,0.831 -7.391,2.468 -0.091,0.06 -0.192,0.14 -0.303,0.245 -0.231,0.197 -0.452,0.406 -0.668,0.621 -1.478,1.314 -2.76,1.952 -2.76,-1.235 l 0,-0.666 c 0,-0.404 -0.327,-0.732 -0.732,-0.732 l -2.101,0 c -0.198,0 -0.388,0.081 -0.525,0.223 -0.139,0.143 -0.212,0.335 -0.206,0.532 0.105,3.333 0.215,6.778 0.215,9.621 l 0,18.75 c 0,0.404 0.328,0.731 0.732,0.731 l 2.209,0 c 0.404,0 0.732,-0.328 0.732,-0.731 l 0,-9.914 c 0,-1.37 0.107,-3.805 0.309,-4.813 1.569,-7.797 4.982,-11.588 10.435,-11.588 0.979,0 1.881,0.165 2.874,0.363 0.048,0.011 0.096,0.015 0.144,0.015 0.148,0 0.294,-0.045 0.417,-0.131 0.163,-0.113 0.273,-0.288 0.306,-0.484 l 0.323,-1.994 c 0.062,-0.384 -0.187,-0.752 -0.568,-0.833 z"
           id="path149" />
        <path
           inkscape:connector-curvature="0"
           d="m -139.68071,307.9266 c -2.512,-1.774 -5.292,-2.04 -6.726,-2.04 -2.91,0 -5.648,0.912 -7.822,2.495 -0.005,0.004 -0.01,0.005 -0.014,0.009 -1.004,0.648 -2.627,0.909 -2.618,-0.625 l 0,-0.021 c 0.002,-0.107 -0.003,-0.199 -0.013,-0.277 l -0.008,-0.182 c -0.019,-0.391 -0.34,-0.698 -0.731,-0.698 l -2.102,0 c -0.203,0 -0.396,0.084 -0.535,0.232 -0.138,0.148 -0.209,0.347 -0.195,0.549 0.152,2.28 0.214,4.171 0.214,6.524 l 0,21.821 c 0,0.404 0.328,0.731 0.731,0.731 l 2.209,0 c 0.404,0 0.732,-0.328 0.732,-0.731 l 0,-17.511 c 0,-0.813 0.253,-1.761 0.49,-2.377 0.004,-0.008 0.006,-0.018 0.01,-0.026 1.043,-3.042 4.224,-6.12 8.417,-6.475 3.236,0.002 8.327,2.358 9.024,8.226 0.016,0.15 0.03,0.299 0.042,0.444 0.004,0.049 0.008,0.099 0.011,0.149 0.005,0.07 0.009,0.139 0.014,0.209 0.009,0.19 0.015,0.384 0.015,0.582 0,0.335 0.006,0.638 0.017,0.911 l 0,15.869 c 0,0.404 0.328,0.731 0.733,0.731 l 2.208,0 c 0.404,0 0.732,-0.328 0.732,-0.731 l 0,-16.272 c 0,-5.375 -1.627,-9.248 -4.835,-11.516 z"
           id="path151" />
        <path
           inkscape:connector-curvature="0"
           d="m -63.456714,333.2686 c -0.133,-0.113 -0.301,-0.174 -0.473,-0.174 -0.04,0 -0.08,0.003 -0.12,0.01 -0.587,0.098 -0.965,0.098 -1.442,0.098 -1.147,0 -2.177,-0.335 -2.177,-4.387 l 0,-9.913 c 0,-2.343 -0.179,-5.368 -1.583,-7.972 -1.822,-3.382 -5.181,-5.098 -9.978,-5.098 -2.475,0 -6.217,0.516 -9.99,2.974 -0.315,0.205 -0.422,0.615 -0.25,0.949 l 0.861,1.67 c 0.098,0.189 0.272,0.326 0.478,0.375 0.058,0.014 0.116,0.021 0.173,0.021 0.151,0 0.299,-0.047 0.424,-0.135 2.314,-1.639 5.186,-2.504 8.305,-2.504 3.995,0 6.004,1.854 7,3.939 l 0,0 c 1.004,2.221 -0.561,4.404 -2.285,4.584 -0.085,0.005 -0.17,0.008 -0.254,0.013 -0.014,0 -0.028,0.001 -0.042,0 -0.055,-10e-4 -0.101,0.003 -0.143,0.009 -10.978,0.626 -16.538,4.313 -16.538,10.98 0,2.027 0.803,4.057 2.202,5.569 1.233,1.333 3.56,2.921 7.635,2.921 3.471,0 6.271,-1.112 8.325,-2.472 0.061,-0.031 0.13,-0.076 0.211,-0.141 0.023,-0.017 0.042,-0.031 0.064,-0.048 0.128,-0.088 0.256,-0.177 0.378,-0.268 1.275,-0.825 1.969,-0.351 2.623,0.504 0.002,0.002 0.006,0.005 0.008,0.007 0.84,1.14 2.161,1.718 3.962,1.718 0.846,0 1.591,-0.094 2.344,-0.294 0.32,-0.085 0.543,-0.375 0.543,-0.707 l 0,-1.67 c -0.002,-0.214 -0.097,-0.419 -0.261,-0.558 z m -18.252,0.527 c -3.042,0 -6.111,-1.723 -6.111,-5.572 0,-4.863 5.936,-6.58 12.167,-7.043 2.32,-0.043 4.097,2.162 4.311,4.575 l 0,0.989 c -0.062,0.647 -0.246,1.289 -0.568,1.888 -0.162,0.263 -0.356,0.556 -0.589,0.864 -0.04,0.047 -0.075,0.093 -0.103,0.134 -1.442,1.848 -4.223,4.165 -9.107,4.165 z"
           id="path153" />
        <path
           inkscape:connector-curvature="0"
           d="m -257.43671,306.5866 -2.047,0 c -0.392,0 -0.715,0.311 -0.731,0.703 -0.065,1.618 -0.892,1.836 -2.704,0.766 -0.01,-0.006 -0.018,-0.014 -0.026,-0.019 -0.178,-0.119 -0.361,-0.231 -0.545,-0.339 -0.011,-0.007 -0.021,-0.012 -0.032,-0.02 -0.088,-0.059 -0.169,-0.104 -0.245,-0.14 -1.982,-1.096 -4.306,-1.65 -6.923,-1.65 -3.739,0 -7.428,1.548 -10.122,4.25 -2.083,2.087 -4.564,5.826 -4.564,11.784 0,3.818 1.347,7.413 3.792,10.122 2.594,2.875 6.234,4.458 10.249,4.458 3.11,0 5.514,-0.819 7.334,-1.897 0.004,-0.002 0.008,-0.003 0.012,-0.005 1.953,-0.873 3.601,-2.182 3.135,2.232 -0.875,5.678 -4.519,8.765 -10.482,8.765 -4.175,0 -7.31,-1.404 -9.204,-2.583 -0.117,-0.072 -0.251,-0.11 -0.387,-0.11 -0.061,0 -0.122,0.008 -0.182,0.023 -0.193,0.049 -0.358,0.176 -0.456,0.35 l -0.969,1.725 c -0.189,0.336 -0.085,0.761 0.237,0.972 2.852,1.863 6.909,2.975 10.853,2.975 2.691,0 9.293,-0.625 12.494,-6.412 1.384,-2.481 2.03,-5.968 2.03,-10.968 l 0,-17.457 c 0,-2.474 0.07,-4.679 0.214,-6.738 0.014,-0.202 -0.057,-0.402 -0.195,-0.549 -0.139,-0.153 -0.333,-0.238 -0.536,-0.238 z m -16.892,26.028 c -0.605,-0.24 -7.609,-3.216 -7.013,-11.811 0.551,-7.946 5.723,-10.459 6.518,-10.798 1.278,-0.5 2.7,-0.769 4.241,-0.769 1.664,0 3.112,0.327 4.354,0.873 6.846,3.871 7.696,16.453 0.885,21.467 -1.592,0.999 -3.437,1.573 -5.346,1.573 -1.342,0 -2.552,-0.194 -3.639,-0.535 z"
           id="path155" />
        <path
           inkscape:connector-curvature="0"
           d="m -99.588714,306.5866 -2.046996,0 c -0.393,0 -0.716,0.311 -0.731,0.703 -0.066,1.618 -0.892,1.836 -2.703,0.766 -0.009,-0.005 -0.018,-0.014 -0.027,-0.019 -0.178,-0.119 -0.362,-0.231 -0.546,-0.339 -0.011,-0.008 -0.02,-0.014 -0.031,-0.02 -0.087,-0.059 -0.168,-0.104 -0.244,-0.139 -1.982,-1.097 -4.307,-1.651 -6.924,-1.651 -3.739,0 -7.429,1.548 -10.122,4.25 -2.082,2.087 -4.564,5.826 -4.564,11.784 0,3.818 1.346,7.413 3.792,10.122 2.595,2.875 6.234,4.458 10.248,4.458 3.111,0 5.514,-0.819 7.335,-1.897 0.004,-0.002 0.007,-0.003 0.012,-0.005 1.954,-0.874 3.603,-2.183 3.135,2.233 -0.875,5.678 -4.519,8.764 -10.482,8.764 -4.175,0 -7.31,-1.404 -9.204,-2.583 -0.118,-0.072 -0.251,-0.11 -0.387,-0.11 -0.06,0 -0.122,0.008 -0.182,0.023 -0.193,0.049 -0.358,0.176 -0.456,0.35 l -0.97,1.725 c -0.189,0.336 -0.085,0.761 0.237,0.972 2.853,1.863 6.91,2.975 10.854,2.975 2.689,0 9.293,-0.625 12.493,-6.412 1.384996,-2.481 2.030996,-5.968 2.030996,-10.968 l 0,-17.457 c 0,-2.474 0.07,-4.679 0.214,-6.738 0.014,-0.202 -0.057,-0.402 -0.195,-0.549 -0.139,-0.153 -0.332,-0.238 -0.536,-0.238 z m -16.891996,26.028 c -0.605,-0.24 -7.609,-3.216 -7.013,-11.811 0.551,-7.94 5.716,-10.455 6.517,-10.798 1.278,-0.5 2.701,-0.769 4.242,-0.769 1.665,0 3.113,0.327 4.354,0.873 6.845,3.871 7.696,16.453 0.884,21.467 -1.592,1 -3.436,1.573 -5.345,1.573 -1.343,0 -2.553,-0.194 -3.639,-0.535 z"
           id="path157" />
        <path
           style="fill:url(#linearGradient3693)"
           inkscape:connector-curvature="0"
           d="m -198.36371,292.3616 c -2.337,2.336 -4.109,5.342 -5.032,8.654 -6.076,-0.093 -12.171,2.273 -17.007,7.11 -8.142,8.141 -10.674,22.913 0.667,34.253 9.542,9.543 23.793,9.687 33.145,0.333 4.421,-4.424 7.236,-10.506 7.297,-16.94 3.14,-0.835 6.125,-2.507 8.67,-5.049 6.956,-6.959 9.086,-18.919 -0.311,-28.318 -7.833,-7.83 -19.626,-7.847 -27.429,-0.043 z m 25.622,20.422 c -1.335,1.338 -3.045,2.324 -4.932,2.864 -3.027,0.867 -4.657,0.777 -5.698,2.515 -1.041,1.735 -0.926,1.94 -0.88,5.194 0.056,3.689 -1.333,7.513 -4.813,10.995 -5.32,5.318 -15.14,6.504 -22.366,-0.721 -5.693,-5.694 -8.365,-15.278 -0.778,-22.865 2.816,-2.813 6.866,-4.477 11.124,-4.402 2.961,0.053 3.306,0.161 5.212,-0.704 1.909,-0.869 1.082,-2.799 2.222,-6.205 0.556,-1.66 1.545,-3.294 3.092,-4.844 4.126,-4.126 11.721,-5.072 17.285,0.491 4.533,4.535 6.455,11.759 0.532,17.682 z"
           id="path164" />
      </g>
    </g>
    <rect
       style="fill:#ffffff;fill-opacity:1;stroke:#2e3436;stroke-width:2;stroke-miterlimit:4;stroke-dasharray:none;stroke-opacity:1;filter:url(#filter4197)"
       id="rect8796"
       width="310.01028"
       height="133.88629"
       x="18.971672"
       y="823.5929" />
    <text
       xml:space="preserve"
       style="font-style:normal;font-variant:normal;font-weight:900;font-stretch:normal;font-size:48px;line-height:125%;font-family:'M+ 1p';-inkscape-font-specification:'M+ 1p Heavy';text-align:center;letter-spacing:0px;word-spacing:0px;writing-mode:lr-tb;text-anchor:middle;fill:#000000;fill-opacity:1;stroke:#000000;stroke-width:0.25;stroke-miterlimit:4;stroke-dasharray:none;stroke-opacity:1;"
       x="171.2637"
       y="868.90601"
       id="text8798"
       sodipodi:linespacing="125%"><tspan
         sodipodi:role="line"
         id="tspan8800"
         x="171.2637"
         y="868.90601"
         style="font-style:normal;font-variant:normal;font-weight:900;font-stretch:normal;font-size:48px;line-height:125%;font-family:'M+ 1p';-inkscape-font-specification:'M+ 1p Heavy';text-align:center;writing-mode:lr-tb;text-anchor:middle;fill:#5795c6;fill-opacity:1;stroke-width:0.25;stroke-miterlimit:4;stroke-dasharray:none">PostgreSQL</tspan></text>
    <rect
       y="890.01483"
       x="18.971672"
       height="67.285728"
       width="310.02841"
       id="rect8806"
       style="fill:#ffffff;fill-opacity:1;stroke:#2e3436;stroke-width:2;stroke-miterlimit:4;stroke-dasharray:none;stroke-opacity:1;filter:url(#filter4197)" />
    <g
       id="g9140"
       transform="matrix(0.7398192,0,0,0.7398192,87.094982,898.64963)">
      <path
         id="path9142"
         d="m 78.954,25.236 c -1.336,-0.289 -2.281,-0.447 -3.442,-0.447 -2.847,0 -5.33,0.831 -7.391,2.468 -0.091,0.06 -0.192,0.14 -0.303,0.245 -0.231,0.197 -0.452,0.406 -0.668,0.621 -1.479,1.314 -2.761,1.952 -2.761,-1.234 l 0,-0.666 c 0,-0.404 -0.327,-0.732 -0.731,-0.732 l -2.102,0 c -0.197,0 -0.388,0.08 -0.524,0.223 -0.14,0.143 -0.212,0.335 -0.206,0.532 0.104,3.333 0.215,6.778 0.215,9.621 l 0,18.75 c 0,0.403 0.328,0.731 0.731,0.731 l 2.21,0 c 0.403,0 0.731,-0.328 0.731,-0.731 l 0,-9.914 c 0,-1.37 0.107,-3.806 0.309,-4.813 1.57,-7.799 4.983,-11.59 10.436,-11.59 0.979,0 1.881,0.165 2.874,0.363 0.048,0.011 0.096,0.016 0.144,0.016 0.148,0 0.294,-0.045 0.417,-0.132 0.163,-0.112 0.273,-0.288 0.307,-0.483 l 0.322,-1.994 c 0.062,-0.385 -0.187,-0.752 -0.568,-0.834 z"
         inkscape:connector-curvature="0"
         style="fill:#030000" />
      <path
         id="path9144"
         d="m 168,26.828 c -2.512,-1.774 -5.292,-2.04 -6.726,-2.04 -2.91,0 -5.648,0.912 -7.822,2.495 -0.005,0.004 -0.01,0.005 -0.015,0.009 -1.004,0.648 -2.627,0.909 -2.617,-0.625 l 0,-0.021 c 0.002,-0.106 -0.003,-0.198 -0.014,-0.276 l -0.008,-0.183 c -0.019,-0.391 -0.34,-0.697 -0.73,-0.697 l -2.103,0 c -0.203,0 -0.396,0.084 -0.535,0.232 -0.138,0.147 -0.209,0.346 -0.194,0.549 0.151,2.279 0.214,4.17 0.214,6.523 l 0,21.821 c 0,0.403 0.328,0.731 0.73,0.731 l 2.209,0 c 0.404,0 0.732,-0.328 0.732,-0.731 l 0,-17.51 c 0,-0.813 0.253,-1.762 0.49,-2.377 0.004,-0.008 0.006,-0.019 0.01,-0.026 1.043,-3.042 4.224,-6.12 8.417,-6.476 3.236,0.002 8.327,2.358 9.023,8.227 0.017,0.15 0.03,0.299 0.042,0.443 0.005,0.049 0.009,0.1 0.012,0.149 0.005,0.07 0.009,0.14 0.014,0.209 0.009,0.19 0.015,0.384 0.015,0.582 0,0.335 0.007,0.638 0.018,0.911 l 0,15.869 c 0,0.404 0.328,0.73 0.732,0.73 l 2.208,0 c 0.404,0 0.732,-0.328 0.732,-0.73 l 0,-16.271 C 172.835,32.97 171.208,29.097 168,26.828 Z"
         inkscape:connector-curvature="0"
         style="fill:#030000" />
      <path
         id="path9146"
         d="m 244.224,52.17 c -0.133,-0.112 -0.301,-0.174 -0.473,-0.174 -0.04,0 -0.08,0.003 -0.12,0.01 -0.587,0.099 -0.965,0.099 -1.441,0.099 -1.147,0 -2.178,-0.336 -2.178,-4.387 l 0,-9.914 c 0,-2.343 -0.179,-5.367 -1.583,-7.972 -1.821,-3.382 -5.181,-5.099 -9.978,-5.099 -2.476,0 -6.217,0.517 -9.99,2.975 -0.315,0.205 -0.422,0.615 -0.25,0.949 l 0.861,1.67 c 0.098,0.189 0.271,0.326 0.478,0.375 0.059,0.014 0.116,0.021 0.173,0.021 0.151,0 0.3,-0.047 0.425,-0.136 2.313,-1.639 5.186,-2.504 8.305,-2.504 3.995,0 6.004,1.854 7,3.938 l 0,0 c 1.004,2.222 -0.562,4.404 -2.285,4.584 -0.085,0.006 -0.17,0.009 -0.254,0.014 -0.014,0 -0.028,10e-4 -0.042,0 -0.055,-10e-4 -0.102,0.003 -0.144,0.009 -10.978,0.626 -16.537,4.313 -16.537,10.979 0,2.027 0.803,4.058 2.201,5.57 1.233,1.332 3.561,2.92 7.636,2.92 3.471,0 6.271,-1.111 8.324,-2.472 0.062,-0.03 0.131,-0.075 0.212,-0.142 0.022,-0.016 0.042,-0.03 0.063,-0.047 0.128,-0.088 0.256,-0.178 0.378,-0.269 1.275,-0.825 1.969,-0.351 2.623,0.504 0.002,0.003 0.006,0.005 0.008,0.007 0.84,1.141 2.161,1.719 3.962,1.719 0.847,0 1.592,-0.094 2.345,-0.295 0.319,-0.084 0.543,-0.375 0.543,-0.707 l 0,-1.67 c -0.002,-0.21 -0.098,-0.415 -0.262,-0.555 z m -18.252,0.528 c -3.042,0 -6.11,-1.724 -6.11,-5.572 0,-4.862 5.936,-6.58 12.167,-7.043 2.319,-0.043 4.097,2.162 4.311,4.575 l 0,0.988 c -0.062,0.647 -0.246,1.289 -0.568,1.889 -0.161,0.263 -0.355,0.556 -0.589,0.863 -0.04,0.047 -0.074,0.094 -0.103,0.135 -1.443,1.847 -4.224,4.165 -9.108,4.165 z"
         inkscape:connector-curvature="0"
         style="fill:#030000" />
      <path
         id="path9148"
         d="m 50.245,25.488 -2.047,0 c -0.393,0 -0.715,0.312 -0.731,0.703 -0.064,1.619 -0.892,1.836 -2.704,0.767 -0.01,-0.006 -0.018,-0.015 -0.025,-0.019 -0.179,-0.119 -0.361,-0.231 -0.545,-0.34 -0.012,-0.006 -0.021,-0.012 -0.032,-0.02 -0.088,-0.059 -0.169,-0.104 -0.245,-0.141 -1.982,-1.096 -4.306,-1.649 -6.923,-1.649 -3.739,0 -7.429,1.548 -10.122,4.25 -2.083,2.087 -4.564,5.826 -4.564,11.784 0,3.818 1.348,7.412 3.792,10.121 2.595,2.875 6.234,4.459 10.249,4.459 3.11,0 5.515,-0.819 7.334,-1.897 0.004,-0.002 0.008,-0.003 0.013,-0.005 1.952,-0.873 3.601,-2.182 3.135,2.232 -0.875,5.678 -4.52,8.765 -10.482,8.765 -4.175,0 -7.31,-1.403 -9.204,-2.583 -0.116,-0.072 -0.251,-0.109 -0.387,-0.109 -0.061,0 -0.122,0.008 -0.182,0.022 -0.193,0.049 -0.358,0.176 -0.456,0.351 l -0.969,1.725 c -0.189,0.336 -0.086,0.761 0.236,0.972 2.853,1.863 6.909,2.976 10.854,2.976 2.69,0 9.293,-0.625 12.494,-6.412 1.384,-2.481 2.029,-5.969 2.029,-10.969 l 0,-17.458 c 0,-2.474 0.07,-4.679 0.214,-6.738 0.015,-0.201 -0.057,-0.401 -0.194,-0.549 -0.141,-0.153 -0.335,-0.238 -0.538,-0.238 z M 33.353,51.517 C 32.749,51.277 25.745,48.3 26.34,39.705 c 0.551,-7.946 5.723,-10.459 6.519,-10.798 1.277,-0.5 2.699,-0.77 4.24,-0.77 1.664,0 3.112,0.327 4.354,0.873 6.846,3.871 7.696,16.453 0.885,21.467 -1.592,1 -3.437,1.574 -5.346,1.574 -1.342,10e-4 -2.553,-0.194 -3.639,-0.534 z"
         inkscape:connector-curvature="0"
         style="fill:#030000" />
      <path
         id="path9150"
         d="m 208.092,25.488 -2.047,0 c -0.393,0 -0.716,0.312 -0.731,0.703 -0.065,1.619 -0.892,1.836 -2.702,0.767 -0.01,-0.005 -0.019,-0.015 -0.027,-0.019 -0.178,-0.119 -0.362,-0.231 -0.546,-0.34 -0.011,-0.008 -0.021,-0.014 -0.031,-0.02 -0.087,-0.059 -0.168,-0.104 -0.244,-0.139 -1.981,-1.098 -4.307,-1.651 -6.924,-1.651 -3.739,0 -7.429,1.548 -10.122,4.25 -2.082,2.087 -4.563,5.826 -4.563,11.784 0,3.818 1.346,7.412 3.792,10.121 2.595,2.875 6.233,4.459 10.248,4.459 3.11,0 5.514,-0.819 7.335,-1.897 0.004,-0.002 0.007,-0.003 0.012,-0.005 1.954,-0.874 3.603,-2.184 3.135,2.232 -0.875,5.679 -4.519,8.765 -10.481,8.765 -4.176,0 -7.311,-1.403 -9.204,-2.583 -0.118,-0.072 -0.251,-0.109 -0.388,-0.109 -0.06,0 -0.122,0.008 -0.182,0.022 -0.193,0.049 -0.358,0.176 -0.456,0.351 l -0.97,1.725 c -0.189,0.336 -0.085,0.761 0.236,0.972 2.854,1.863 6.91,2.976 10.854,2.976 2.688,0 9.293,-0.625 12.493,-6.412 1.385,-2.481 2.031,-5.969 2.031,-10.969 l 0,-17.458 c 0,-2.474 0.069,-4.679 0.214,-6.738 0.014,-0.201 -0.058,-0.401 -0.195,-0.549 -0.139,-0.153 -0.333,-0.238 -0.537,-0.238 z m -16.891,26.029 c -0.605,-0.24 -7.609,-3.217 -7.014,-11.812 0.552,-7.94 5.717,-10.455 6.518,-10.798 1.278,-0.5 2.701,-0.77 4.242,-0.77 1.665,0 3.112,0.327 4.354,0.873 6.845,3.871 7.696,16.453 0.884,21.467 -1.592,1 -3.436,1.574 -5.345,1.574 -1.343,10e-4 -2.553,-0.194 -3.639,-0.534 z"
         inkscape:connector-curvature="0"
         style="fill:#030000" />
      <linearGradient
         gradientTransform="matrix(1,0,0,-1,-279.2305,-111.2632)"
         y2="-176.4133"
         x2="390.90091"
         y1="-115.3889"
         x1="390.90091"
         gradientUnits="userSpaceOnUse"
         id="SVGID_1_-4">
        <stop
           id="stop9153"
           style="stop-color:#5795C6"
           offset="0" />
        <stop
           id="stop9155"
           style="stop-color:#0B3F63"
           offset="1" />
      </linearGradient>
      <path
         style="fill:url(#SVGID_1_-4)"
         id="path9157"
         d="m 109.318,11.263 c -2.338,2.336 -4.109,5.342 -5.032,8.654 -6.076,-0.093 -12.171,2.273 -17.007,7.109 -8.143,8.142 -10.675,22.914 0.667,34.254 9.542,9.543 23.793,9.688 33.145,0.332 4.42,-4.424 7.236,-10.506 7.297,-16.939 3.14,-0.835 6.124,-2.507 8.669,-5.049 6.956,-6.959 9.086,-18.919 -0.311,-28.318 -7.832,-7.83 -19.625,-7.847 -27.428,-0.043 z m 25.621,20.422 c -1.335,1.338 -3.045,2.324 -4.932,2.864 -3.027,0.867 -4.656,0.777 -5.697,2.515 -1.041,1.735 -0.926,1.94 -0.881,5.195 0.057,3.688 -1.332,7.512 -4.813,10.994 -5.32,5.318 -15.14,6.504 -22.366,-0.721 -5.693,-5.694 -8.365,-15.278 -0.778,-22.865 2.816,-2.813 6.866,-4.477 11.124,-4.402 2.961,0.053 3.307,0.162 5.212,-0.703 1.909,-0.869 1.082,-2.799 2.223,-6.205 0.556,-1.66 1.544,-3.295 3.091,-4.844 4.127,-4.127 11.721,-5.072 17.285,0.49 4.534,4.535 6.456,11.76 0.532,17.682 z"
         inkscape:connector-curvature="0" />
      <path
         id="path9159"
         d="m 0.388,24.795 c -2.915,0 -5.501,0.671 -7.686,1.991 -0.526,0.318 -1.027,0.676 -1.5,1.068 -1.114,1.113 -2.128,2.432 -2.128,0.062 0,-0.817 -0.077,-1.722 -0.077,-1.722 -0.018,-0.39 -0.34,-0.697 -0.73,-0.697 l -2.156,0 c -0.201,0 -0.393,0.081 -0.531,0.227 -0.139,0.146 -0.211,0.343 -0.199,0.543 0.146,2.73 0.214,5.611 0.214,9.066 l 0,31.139 c 0,0.404 0.327,0.731 0.731,0.731 l 2.209,0 c 0.404,0 0.732,-0.327 0.732,-0.731 0,0 0,-9.742 0,-11.516 0,-1.774 0.603,-2.513 2.086,-1.485 2.325,1.61 5.169,2.581 8.389,2.581 4.086,0 7.805,-1.507 10.469,-4.242 2.863,-2.938 4.377,-7.089 4.377,-12.007 0,-4.005 -1.338,-7.725 -3.766,-10.471 C 8.196,26.365 4.589,24.795 0.388,24.795 Z m -0.647,27.961 c -4.727,0 -9.07,-3.237 -10.173,-7.206 -1.103,-3.969 -0.402,-7.971 0.204,-9.89 1.453,-4.598 5.514,-7.569 10.346,-7.569 7.088,0 10.797,5.946 10.797,11.821 0,7.923 -4.281,12.844 -11.174,12.844 z"
         inkscape:connector-curvature="0"
         style="fill:#040000" />
    </g>
    <path
       style="fill:none;stroke:#4e9a06;stroke-width:5;stroke-linecap:butt;stroke-linejoin:miter;stroke-miterlimit:4;stroke-dasharray:none;stroke-opacity:1;marker-end:url(#marker9634)"
       d="m 157.93697,813.12304 0,-85"
       id="path9286"
       inkscape:connector-curvature="0" />
    <path
       style="fill:none;stroke:#4e9a06;stroke-width:5;stroke-linecap:butt;stroke-linejoin:miter;stroke-miterlimit:4;stroke-dasharray:none;stroke-opacity:1;marker-end:url(#marker9571)"
       d="m 175.93697,728.12304 0,82"
       id="path9288"
       inkscape:connector-curvature="0" />
    <text
       xml:space="preserve"
       style="font-style:normal;font-variant:normal;font-weight:normal;font-stretch:normal;font-size:32px;line-height:125%;font-family:Sans;-inkscape-font-specification:Sans;letter-spacing:0px;word-spacing:0px;fill:#000000;fill-opacity:1;stroke:none;stroke-width:1px;stroke-linecap:butt;stroke-linejoin:miter;stroke-opacity:1"
       x="810.77313"
       y="871.51721"
       id="text10106"
       sodipodi:linespacing="125%"><tspan
         sodipodi:role="line"
         id="tspan10108"
         x="810.77313"
         y="871.51721">他のプロダクト</tspan></text>
    <text
       xml:space="preserve"
       style="font-style:normal;font-variant:normal;font-weight:normal;font-stretch:normal;font-size:32px;line-height:125%;font-family:Sans;-inkscape-font-specification:Sans;letter-spacing:0px;word-spacing:0px;fill:#000000;fill-opacity:1;stroke:none;stroke-width:1px;stroke-linecap:butt;stroke-linejoin:miter;stroke-opacity:1"
       x="809.77313"
       y="938.22229"
       id="text10110"
       sodipodi:linespacing="125%"><tspan
         sodipodi:role="line"
         id="tspan10112"
         x="809.77313"
         y="938.22229">つなぐプロダクト</tspan></text>
    <text
       sodipodi:linespacing="125%"
       id="text10114"
       y="1003.445"
       x="810.77441"
       style="font-style:normal;font-variant:normal;font-weight:normal;font-stretch:normal;font-size:32px;line-height:125%;font-family:Sans;-inkscape-font-specification:Sans;letter-spacing:0px;word-spacing:0px;fill:#000000;fill-opacity:1;stroke:none;stroke-width:1px;stroke-linecap:butt;stroke-linejoin:miter;stroke-opacity:1"
       xml:space="preserve"><tspan
         y="1003.445"
         x="810.77441"
         id="tspan10116"
         sodipodi:role="line">Groonga</tspan></text>
    <path
       style="fill:none;fill-rule:evenodd;stroke:#000000;stroke-width:5;stroke-linecap:butt;stroke-linejoin:miter;stroke-miterlimit:4;stroke-dasharray:none;stroke-opacity:1;marker-end:url(#Arrow1Send)"
       d="m 799.35002,862.94146 -31.44508,0"
       id="path10118"
       inkscape:connector-curvature="0" />
    <path
       inkscape:connector-curvature="0"
       id="path10120"
       d="m 799.35002,925.94072 -31.44508,0"
       style="fill:none;fill-rule:evenodd;stroke:#000000;stroke-width:5;stroke-linecap:butt;stroke-linejoin:miter;stroke-miterlimit:4;stroke-dasharray:none;stroke-opacity:1;marker-end:url(#Arrow1Send)" />
    <path
       style="fill:none;fill-rule:evenodd;stroke:#000000;stroke-width:5;stroke-linecap:butt;stroke-linejoin:miter;stroke-miterlimit:4;stroke-dasharray:none;stroke-opacity:1;marker-end:url(#Arrow1Send)"
       d="m 799.35002,991.16348 -31.44508,0"
       id="path10122"
       inkscape:connector-curvature="0" />
    <text
       xml:space="preserve"
       style="font-style:normal;font-weight:normal;font-size:30px;line-height:125%;font-family:Sans;text-align:center;letter-spacing:0px;word-spacing:0px;text-anchor:middle;fill:#4e9a06;fill-opacity:1;stroke:none"
       x="121.19035"
       y="778.24017"
       id="text11816"
       sodipodi:linespacing="125%"><tspan
         sodipodi:role="line"
         id="tspan11818"
         x="121.19035"
         y="778.24017">SQL</tspan></text>
    <text
       sodipodi:linespacing="125%"
       id="text11820"
       y="778.24017"
       x="402.51584"
       style="font-style:normal;font-weight:normal;font-size:30px;line-height:125%;font-family:Sans;text-align:center;letter-spacing:0px;word-spacing:0px;text-anchor:middle;fill:#4e9a06;fill-opacity:1;stroke:none"
       xml:space="preserve"><tspan
         y="778.24017"
         x="402.51584"
         id="tspan11822"
         sodipodi:role="line">SQL</tspan></text>
    <rect
       style="color:#000000;display:inline;overflow:visible;visibility:visible;opacity:1;fill:none;fill-opacity:1;fill-rule:nonzero;stroke:#000000;stroke-width:5;stroke-linecap:butt;stroke-linejoin:miter;stroke-miterlimit:4;stroke-dasharray:none;stroke-dashoffset:0;stroke-opacity:1;marker:none;enable-background:accumulate"
       id="rect7486"
       width="272.8924"
       height="55.508057"
       x="799.68274"
       y="896.53711"
       rx="5"
       ry="5" />
  </g>
</svg>
